<svg xmlns="http://www.w3.org/2000/svg" width="4487" height="4487" viewBox="0 0 4487 4487">
  <defs>
    <style>
      .cls-1 {
        fill: #220420;
        fill-rule: evenodd;
      }
    </style>
  </defs>
  <path class="cls-1" d="M3539.5,1304C4778.55,1304,5783,2308.45,5783,3547.5S4778.55,5791,3539.5,5791,1296,4786.55,1296,3547.5,2300.45,1304,3539.5,1304Zm0.22,404s82.65-12.44,121.06,59.17c10.47,23.71,17.49,52.19,9.99,121.79,30.42,7.72,169.24,32.26,171.69,221.6,80.3-2.29,197.65,3.99,197.65,3.99l43.92,75.87s-309.91,200.12-289.48,684.78c52.36,33.53,287.48,159.71,287.48,159.71L3764.6,3210.6s-54.31,731.36,191.66,1107.03c28.38,38.31,169.27,153.39,157.72,283.49,50.32,6.34,249.16,39.65,235.58,283.5-3.61,30.25-10.4,81.57-93.84,149.73,34.34,26.24,65.54,63.61,211.63,79.86-19.6,183.92-19.97,257.54-19.97,257.54l-907.66,15.97V1708Zm0,0s-163.45-25.09-121.5,175.97c-35.9,12.44-164.8,20.61-182.68,224.6-77.75.4-191.66,0-191.66,0l-44.92,83.85s277.97,130.25,289.49,682.78c-32.4,17.56-287.49,161.71-287.49,161.71l319.43,173.69s38.34,737.35-193.65,1105.03c-36.38,48.3-187.25,173.36-159.72,285.49-40.34,6.34-231.2,9.7-239.57,239.57-0.39,34.26.41,133.48,93.83,193.66-30.34,20.25-127.42,91.55-209.63,75.86,0,54.18,31.95,227.37,23.96,277.51h904.11V1708ZM2635,5387l723-16,1091,16-8-55-477-37Z" transform="translate(-1296 -1304)"/>
</svg>
