<svg id="face" xmlns="http://www.w3.org/2000/svg" width="1920" height="1080" viewBox="0 0 1920 1080">
  <defs>
    <style>
      .cls-1, .cls-7, .cls-9 {
        fill: #030303;
      }

      .cls-1, .cls-2, .cls-3, .cls-5 {
        fill-rule: evenodd;
      }

      .cls-2, .cls-3, .cls-4, .cls-6 {
        fill: #fff;
      }

      .cls-2 {
        opacity: 0.89;
      }

      .cls-3, .cls-4, .cls-5 {
        stroke: #2e3192;
        stroke-width: 1px;
      }

      .cls-4, .cls-5 {
        opacity: 0.78;
      }

      .cls-5 {
        fill: #0076a3;
      }

      .cls-6 {
        opacity: 0.48;
      }

      .cls-7, .cls-9 {
        font-size: 72px;
        font-family: "OCR-A BT";
      }

      .cls-8 {
        font-size: 72px;
      }

      .cls-9 {
        opacity: 0.46;
      }
    </style>
  </defs>
  <path class="cls-1" d="M564,235s-16.667-88.667-57-109c-4.667-7-16-25.667,7-32,5.667,1.667,8.333,1.333,13,14s38.333,42.333,45,44,4-24.333,0-30-9.667-14.667-3-23,28.333-11.333,25,19c1,7.667,8,26.667,12,29s4.667,7.333,8,5,2.667-8.667,23-12c4-2.667,6.667-3.667,7-7s4.333-13,1-18-3-20.667,7-20,18.667-1.667,15,21-3,16.667,3,22,16.333-.667,33,16c3.333-4,17.333-25,16-46,2-6.333,3.333-17,19-13,4.667,4.667,12,15,2,29-2.667,11.333-3,26-3,26s-1.667,8.333,9,1,34-31.667,36-36,3.667-24.333,17-20,20.333,19.667,2,31-45.667,53.333-53,104c0,5-3,3.667,9,9s12.333,38-14,36c-0.333,6,0,42,0,42s32.667-2,51,19c2.333,1.333,6.75,1.75-1,9s-21.25,17.5-47,18c0.75,4.25,5.5,27.25-21,22-1,9-7,153-7,153s0.5,187.5,25,201a79.7,79.7,0,0,1,17,1s7,29,12,40,25,85.333,62,111c2,2.667,2,35,2,35l-10-1s28.333,19.667,22,44a100.282,100.282,0,0,1-1,14s0.667,3.333-8,3-371,0-371,0-2,.333-3-6-3.333-29,8-41a149.454,149.454,0,0,1,15-12l-12-1-1-30s-0.333-2.333,6-8,50-55,68-139c1-7,1-8.667,19-9,3.333-10.333,45-180,17-355-5,.667-21.333,4.333-21-22-4.333-.667-27,0.667-46-21-3.667-1.333-9-1.667,0-8s13.333-15.667,51-17c-0.333-9,0-40,0-40S524,260.333,564,235Z"/>
  <path class="cls-2" d="M671.891,361.414s4.736,2.721,0,7.143-8.909-2.96-16.575,2.04-4.736,13.944-13.024,12.244-2.368-7.823,0-11.224a32.387,32.387,0,0,1,5.92-6.142S654.331,359.054,671.891,361.414Z"/>
  <path class="cls-3" d="M638.97,238.841a287.823,287.823,0,0,1-34.915,9.068c-17.713,3.258-27.031,4.112-30.246,10.986s-0.468,6.832,2.12,2.432,8.3-5.957,17.065-5.476,35.972-14.487,44.33-13,3.766-1.575,3.766-1.575Z"/>
  <path class="cls-3" d="M667.532,235.747c-0.48,3.685-.683,8.3,22.251,12.264s10.948,3.718,29.117,8.841,22.232,14.208,27.707,16.067,12.438,1.989,2.824-1.181-19.035-12.5-19.035-12.5-17.7-5.32-20.287-7.555-4.985-4-16.286-5.911S668.255,230.191,667.532,235.747Z"/>
  <path class="cls-3" d="M626.306,260.173c0.3,4.024,5.537,9.3,5.537,9.3l2.824-1.181-4.632-5.806S626.01,256.149,626.306,260.173Z"/>
  <path class="cls-3" d="M579.718,312.833l0.823-2s-10.268-18.657,9.048-35.305c5.59-3.167,15.687-15.408,41.393-.163,2.628-1.652-1.552-5.711-4.358-6.473s-21.1-14.131-42.646,5.111S577.919,325.752,579.718,312.833Z"/>
  <circle class="cls-4" cx="609.922" cy="299.094" r="24.766"/>
  <path id="Ellipse_1_copy" data-name="Ellipse 1 copy" class="cls-5" d="M618.076,280.205a20.577,20.577,0,1,1-27.166,11.082A20.747,20.747,0,0,1,618.076,280.205Z"/>
  <path class="cls-3" d="M598.747,312.067a36.479,36.479,0,0,1-7.887-1.68,52.123,52.123,0,0,0-6.472,4.365c-3.981,3.047-8.592,1.933-9.963,5.272s2.082,6.319,2.082,6.319,8.062-2.541,8.161,1.012,1.749,6.181,4.121,3.254,5.568-7.859,9.06-8.765C607.015,319.463,608.122,312.355,598.747,312.067Z"/>
  <path id="Shape_4_copy" data-name="Shape 4 copy" class="cls-3" d="M727.169,313.042l-0.8-2s9.932-18.606-8.751-35.208c-5.407-3.158-15.174-15.365-40.038-.163-2.542-1.647,1.5-5.695,4.215-6.455s20.4-14.092,41.25,5.1S728.909,325.925,727.169,313.042Z"/>
  <circle class="cls-6" cx="603" cy="289" r="6"/>
  <ellipse id="Ellipse_2_copy" data-name="Ellipse 2 copy" class="cls-6" cx="594.5" cy="302" rx="8.5" ry="9"/>
  <circle id="Ellipse_2_copy_2" data-name="Ellipse 2 copy 2" class="cls-6" cx="613" cy="286" r="3"/>
  <circle id="Ellipse_1_copy_2" data-name="Ellipse 1 copy 2" class="cls-4" cx="697.954" cy="299.36" r="23.984"/>
  <path id="Ellipse_1_copy_2-2" data-name="Ellipse 1 copy 2" class="cls-5" d="M690.068,280.5a20.911,20.911,0,0,0-11.15,26.905,19.854,19.854,0,0,0,26.276,11.051,20.91,20.91,0,0,0,11.15-26.905A19.855,19.855,0,0,0,690.068,280.5Z"/>
  <path id="Shape_5_copy" data-name="Shape 5 copy" class="cls-3" d="M710.764,312.277c5.5,2.5,7.628-1.675,7.628-1.675a50.335,50.335,0,0,1,6.26,4.353c3.851,3.039,8.311,1.928,9.637,5.258s-2.014,6.3-2.014,6.3-7.8-2.534-7.894,1.009-1.691,6.165-3.986,3.245"/>
  <path class="cls-3" d="M703,318l8-5,13,9-3,7S703,329,703,318Z"/>
  <text id="Something_went_wrong..." data-name="Something went wrong..." class="cls-7" transform="translate(848.907 418.375) scale(1.214 1.15)">Something went<tspan class="cls-8" x="0" dy="86.4">wrong...</tspan></text>
  <text id="_404_error" data-name="404 error" class="cls-9" transform="translate(848.907 589.374) scale(1.214 1.15)">404 error</text>
</svg>
